<svg xmlns="http://www.w3.org/2000/svg" viewBox="0 0 219 44" preserveAspectRatio="xMinYMid meet">
  <title>
    Länsförsäkringar Stockholm
  </title>
  <g fill="none" fill-rule="evenodd">
    <g fill="#f0f3f5">
      <path d="M113.98 7.525v8.122c0 1.136-.048 1.208-1.8 1.667v.435h6.956v-.436c-1.727-.46-1.8-.556-1.8-1.667V5.423h-5.155v.434c1.752.46 1.8.532 1.8 1.668zM119.532 8.873h.962c1.132 0 1.217-.086 1.217-1.226V6.65c0-1.142-.084-1.227-1.216-1.227h-.962c-1.132 0-1.216.085-1.216 1.226v.997c0 1.14.084 1.226 1.216 1.226zM161.64 15.647V5.423h-5.157v.434c1.75.46 1.798.532 1.798 1.668v8.12c0 .835-.027 1.096-.734 1.358-.36.125-.776.186-.945.158-.596-.102-.857-.264-1.246-.787l-4.458-6.55s2.036-2.418 2.755-3.095c.48-.46.864-.75 1.967-.87v-.435h-4.46v.435c.96.024 1.39.12 1.39.387 0 .12-.143.314-.407.556l-4.17 4.4 3.474 5.245c.096.17.168.29.168.387 0 .265-.455.267-1.39.484v.434h7.002v-.002h6.213v-.435c-1.726-.458-1.798-.554-1.798-1.666zM164.796 5.423h-.962c-1.132 0-1.217.085-1.217 1.226v.997c0 1.14.085 1.226 1.217 1.226h.962c1.132 0 1.216-.086 1.216-1.226V6.65c0-1.142-.084-1.227-1.216-1.227zM52.677 16.54h-1.402V3.176c0-1.136.048-1.208 1.8-1.667v-.435h-7.1v.435c1.727.46 1.8.556 1.8 1.667v12.472c0 1.136-.05 1.21-1.8 1.668v.435h12.242l.288-5.318h-.432c-1.654 4.206-3.022 4.11-5.396 4.11zM66.6 3.756h.814c.96 0 1.03-.073 1.03-1.04V1.87c0-.966-.07-1.04-1.03-1.04H66.6c-.96 0-1.032.074-1.032 1.04v.846c0 .967.072 1.04 1.03 1.04zM62.018 3.756h.816c.96 0 1.03-.073 1.03-1.04V1.87c0-.966-.07-1.04-1.03-1.04h-.816c-.96 0-1.03.074-1.03 1.04v.846c0 .967.07 1.04 1.03 1.04zM63.026 11.224c-2.734 0-3.742.894-3.742 3.432 0 2.61.936 3.335 3.166 3.335 1.438 0 2.878-.482 3.645-.966.336.725 1.15.967 2.326.967.632 0 1.33-.064 2.13-.168.173-.023.423-.073.87-.073h5.57v-.435c-1.725-.46-1.797-.556-1.797-1.668V7.164c.91-.073 1.798-.145 2.685-.145 1.272 0 1.416.29 1.416 1.497v7.13c0 1.136-.048 1.21-1.8 1.668v.435h6.956v-.435c-1.727-.46-1.8-.556-1.8-1.668v-7.3c0-2.585-1.845-3.165-3.404-3.165-1.415 0-3.453.653-4.533 1.62V5.423h-4.676v.435c1.75.458 1.798.53 1.798 1.666v8.12c0 .727-.022 1.02-.493 1.255-.325.157-.577.17-.71.18-1.15.09-1.348-.488-1.348-1.505V8.88c0-2.417-1.367-3.698-3.74-3.698-3.142 0-5.948.918-5.948 3.287 0 1.038.455 1.618 1.654 1.618 1.2 0 1.68-.725 1.68-1.692 0-.942-.337-1.208-1.56-1.4V6.92s1.27-.073 2.158-.073c2.23 0 2.4.096 2.4 2.513v1.86h-2.902zm2.9 4.907v.194c-.454.145-.982.217-1.462.217-1.27 0-1.678-.29-1.678-1.932 0-2.224.12-2.393 3.14-2.417v3.94zM88.995 16.856c-1.51 0-2.806-.63-3.91-3.046h-.43l.072 3.602c.647.193 2.614.58 4.1.58 2.95 0 4.533-1.45 4.533-3.916 0-4.858-6.307-3.625-6.307-6.308 0-1.016.84-1.45 1.846-1.45 1.414 0 2.325.507 3.285 2.634h.43l-.167-3.48s-1.798-.29-3.07-.29c-3.237 0-4.723 1.208-4.723 3.794 0 5.076 6.21 3.577 6.21 6.308 0 .992-.815 1.572-1.87 1.572zM93.154 17.75h6.954v-.435c-1.726-.46-1.798-.556-1.798-1.668V6.584l2.685-.616v-.544H98.31v-2.2c0-1.426.335-1.498 1.39-1.498h1.654v-.29c-1.03-.967-2.3-1.33-3.428-1.33-1.68 0-2.974.943-2.974 3.19V15.647c0 1.136-.048 1.21-1.798 1.668v.435zM108.187 3.756h.816c.96 0 1.03-.073 1.03-1.04V1.87c0-.966-.07-1.04-1.03-1.04h-.816c-.96 0-1.03.074-1.03 1.04v.846c0 .967.07 1.04 1.03 1.04zM103.607 3.756h.816c.96 0 1.03-.073 1.03-1.04V1.87c0-.966-.07-1.04-1.03-1.04h-.816c-.96 0-1.03.074-1.03 1.04v.846c0 .967.07 1.04 1.03 1.04z"/>
      <path d="M106.472 17.992c4.316 0 5.73-.63 5.73-6.284 0-5.656-1.27-6.526-5.73-6.526-4.317 0-6.067.846-6.067 6.526 0 5.535 1.774 6.284 6.067 6.284zm0-11.77c2.038 0 2.134.555 2.134 5.486 0 5.05-.216 5.245-2.134 5.245-2.23 0-2.47-.194-2.47-5.245 0-4.98.12-5.487 2.47-5.487zM126.585 16.856c-1.51 0-2.806-.63-3.91-3.046h-.43l.07 3.602c.648.193 2.615.58 4.1.58 2.95 0 4.534-1.45 4.534-3.916 0-4.858-6.308-3.625-6.308-6.308 0-1.016.84-1.45 1.847-1.45 1.414 0 2.325.507 3.284 2.634h.432l-.168-3.48s-1.8-.29-3.07-.29c-3.237 0-4.724 1.208-4.724 3.794 0 5.076 6.21 3.577 6.21 6.308.002.992-.814 1.572-1.87 1.572zM169.478 3.587h.816c.96 0 1.03-.073 1.03-1.04V1.7c0-.966-.07-1.038-1.03-1.038h-.816c-.96 0-1.03.073-1.03 1.04v.845c0 .967.07 1.04 1.03 1.04zM185.353 15.647v-7.3c0-2.585-1.847-3.165-3.405-3.165-1.416 0-3.454.653-4.533 1.62V5.423h-4.676v.435c1.75.458 1.798.53 1.798 1.666v8.12c0 .907-.034 1.137-.935 1.426-.267.09-.65.086-.864.02-.96-.306-1.008-.537-1.008-1.445V5.423h-5.156v.435c1.75.46 1.8.532 1.8 1.668v8.12c0 1.137-.05 1.21-1.8 1.67v.434h13.116v-.435c-1.726-.46-1.798-.556-1.798-1.668V7.164c.91-.073 1.798-.145 2.685-.145 1.272 0 1.415.29 1.415 1.497v7.13c0 1.136-.048 1.21-1.798 1.668v.435h6.593v-.435c-1.393-.404-1.437-.556-1.437-1.668zM194.408 14.898h-4.15c-.814 0-1.126-.34-1.126-.798 0-.363.07-.786.17-1.193.768.193 1.605.25 2.852.25 3.957 0 5.324-.7 5.324-3.77 0-1.402-.36-2.393-1.08-3.046l2.4-.482v-.435c-2.135-.12-4.893-.242-6.644-.242-2.83 0-5.372.605-5.372 4.207 0 1.643.432 2.658 1.607 3.214-1.2 1.258-1.464 2.14-1.416 3.19.032.7.397 1.402 1.21 1.91-.72.968-1.21 2.248-1.21 3.046 0 1.378.72 1.91 3.333 1.91h3.765c2.854 0 3.885-.677 3.885-4.206 0-2.78-.79-3.552-3.55-3.552zm-2.278-8.605c1.367 0 1.75.29 1.75 3.022 0 2.538-.167 2.73-1.75 2.73-1.415 0-1.75-.192-1.75-2.73 0-2.9.407-3.022 1.75-3.022zm1.126 15.252h-2.014c-1.823 0-2.374-.145-2.374-1.523 0-.677.024-1.378.048-2.054.264.048.552.072.864.072h3.38c1.943 0 2.4.217 2.4 1.813 0 1.474-.337 1.692-2.304 1.692zM135.613 11.224c-2.734 0-3.74.894-3.74 3.432 0 2.61.934 3.335 3.164 3.335 1.44 0 2.878-.482 3.646-.966.335.725 1.15.967 2.326.967.47 0 .98-.035 1.542-.097.346-.038.712-.14 1.275-.142h5.726v-.435c-1.726-.46-1.798-.556-1.798-1.668V.347H142.6v.436c1.75.46 1.797.532 1.797 1.668V15.65c0 .496-.01.79-.166 1-.06.085-.147.155-.264.22v-.002c-.03.018-.06.032-.09.048-.056.027-.118.053-.187.08-.336.11-.673.083-.848.072-.785-.05-.97-.608-.97-1.492V8.88c0-2.417-1.367-3.698-3.74-3.698-3.142 0-5.948.918-5.948 3.287 0 1.038.455 1.618 1.655 1.618 1.197 0 1.677-.725 1.677-1.692 0-.942-.336-1.208-1.56-1.4V6.92s1.272-.073 2.16-.073c2.23 0 2.398.096 2.398 2.513v1.86h-2.902zm2.9 4.907v.194c-.454.145-.982.217-1.46.217-1.272 0-1.68-.29-1.68-1.932 0-2.224.12-2.393 3.142-2.417v3.94z"/>
      <path d="M139.186 3.756H140c.96 0 1.032-.073 1.032-1.04V1.87c0-.966-.07-1.04-1.03-1.04h-.816c-.96 0-1.03.074-1.03 1.04v.846c0 .967.07 1.04 1.03 1.04zM134.606 3.756h.815c.96 0 1.032-.073 1.032-1.04V1.87c0-.966-.072-1.04-1.03-1.04h-.816c-.96 0-1.032.074-1.032 1.04v.846c0 .967.073 1.04 1.032 1.04zM214.376 15.647V5.423h-5.156v.434c1.75.46 1.8.532 1.8 1.668v8.12c0 .808-.055 1.083-.7 1.325-.24.09-.77.2-1.266.003-.493-.264-.596-.664-.596-1.4V8.88c0-2.417-1.367-3.698-3.74-3.698-3.142 0-5.948.918-5.948 3.287 0 1.038.455 1.618 1.655 1.618s1.678-.725 1.678-1.692c0-.942-.335-1.208-1.56-1.4V6.92s1.273-.073 2.16-.073c2.23 0 2.398.096 2.398 2.513v1.86h-2.9c-2.734 0-3.742.896-3.742 3.433 0 2.61.936 3.336 3.166 3.336 1.44 0 2.878-.484 3.645-.967.335.725 1.15.967 2.325.967.767 0 2.008-.242 2.848-.242h5.732v-.436c-1.726-.46-1.8-.555-1.8-1.667zm-9.275.484v.194c-.454.145-.982.217-1.462.217-1.27 0-1.678-.29-1.678-1.932 0-2.224.12-2.393 3.14-2.417v3.94zM217.533 5.423h-.96c-1.133 0-1.218.085-1.218 1.226v.997c0 1.14.085 1.226 1.217 1.226h.96c1.133 0 1.218-.086 1.218-1.226V6.65c0-1.142-.085-1.227-1.217-1.227zM55.307 30.164c-.96-.483-2.014-.82-2.925-1.208-1.8-.846-2.28-1.716-2.28-2.9 0-1.33 1.032-2.03 2.52-2.03 1.894 0 3.237.894 4.436 3.963h.55V23.3s-1.99-.483-4.387-.483c-3.86 0-6.114 2.055-6.114 5.1 0 1.86 1.08 3.287 2.853 4.182.815.36 1.774.7 2.565 1.038 2.35.967 2.926 1.813 2.926 3.31 0 1.355-.91 2.32-2.71 2.32-1.677 0-3.956-.796-4.843-4.663h-.67l.142 5.317c1.438.314 3.117.556 4.556.556 3.74 0 6.45-1.233 6.45-5.486 0-1.91-1.03-3.337-3.07-4.328zM63.025 35.724v-7.3l2.686-.58v-.435h-2.685v-3.48h-.43l-2.927 2.223v10.803c0 2.223.768 2.997 2.83 2.997 1.583 0 2.865-.653 3.632-1.185v-.41h-.695c-2.374-.002-2.41-.147-2.41-2.636z"/>
      <path d="M71.92 27.167c-4.315 0-6.066.846-6.066 6.526 0 5.535 1.775 6.284 6.067 6.284 4.318 0 5.733-.628 5.733-6.284s-1.27-6.526-5.732-6.526zm0 11.77c-2.23 0-2.468-.192-2.468-5.244 0-4.98.12-5.486 2.47-5.486 2.038 0 2.134.556 2.134 5.486 0 5.052-.216 5.245-2.135 5.245zM88.55 38.165h-3.106c-3.26 0-3.31-.677-3.31-5.173 0-3.48.29-4.157 1.823-4.157 1.343 0 2.015 0 3.382.073v.072c-1.584.12-1.656.774-1.656 1.402 0 1.136.576 1.668 1.63 1.668 1.248 0 1.703-.435 1.703-1.74 0-1.717-2.038-3.143-4.94-3.143-2.734 0-5.54.822-5.54 6.31 0 4.374 1.583 6.5 5.468 6.5 1.51 0 3.08-.24 4.544-1.57v-.242zM114.374 37.633v-7.3c0-2.586-1.847-3.166-3.406-3.166-1.222 0-2.925.484-4.052 1.257v-6.09h-5.156v.434c1.75.46 1.798.532 1.798 1.668v13.196c0 .788-.023 1.065-.62 1.313-.232.096-.576.228-.992.12-.37-.112-.596-.3-.9-.707l-4.452-6.55s2.03-2.345 2.75-3.02c.48-.46.862-.75 1.966-.872v-.507h-4.46v.506c.96.024 1.39.12 1.39.387 0 .12-.144.314-.408.556l-4.164 4.325 3.47 5.245c.095.17.167.29.167.387 0 .266-.456.314-1.39.532v.385h12.8V39.3c-1.727-.46-1.8-.556-1.8-1.667V29.15c.912-.073 1.8-.146 2.687-.146 1.27 0 1.415.29 1.415 1.5v7.13c0 1.135-.048 1.207-1.8 1.666v.435h6.956V39.3c-1.727-.46-1.8-.555-1.8-1.667zM122.01 27.167c-4.316 0-6.067.846-6.067 6.526 0 5.535 1.775 6.284 6.067 6.284 4.317 0 5.732-.628 5.732-6.284s-1.27-6.526-5.732-6.526zm0 11.77c-2.23 0-2.47-.192-2.47-5.244 0-4.98.12-5.486 2.47-5.486 2.04 0 2.134.556 2.134 5.486 0 5.052-.216 5.245-2.134 5.245z"/>
      <path d="M153.96 37.633l-.023-7.324c0-2.587-1.798-3.143-3.357-3.143-1.295 0-3.14.532-4.27 1.354-.574-1.184-1.87-1.353-3.044-1.353-1.39 0-3.357.58-4.46 1.523v-1.28h-4.677v.434c1.75.46 1.798.532 1.798 1.668l-.024 8.12c0 .953-.034 1.157-1.076 1.47-.29.087-.753.072-1.045-.017l.002.003c-.994-.31-1.046-.536-1.046-1.456v-15.3h-5.157v.436c1.75.46 1.8.53 1.8 1.667v13.197c0 1.136-.05 1.21-1.8 1.668v.435h13.477V39.3c-1.727-.46-1.798-.556-1.798-1.668l-.025-8.508c.912-.096 1.8-.144 2.662-.144 1.27 0 1.414.29 1.414 1.45l-.023 7.202c0 1.136-.047 1.21-1.798 1.668v.435h6.954V39.3c-1.726-.46-1.798-.556-1.798-1.668l-.024-7.565c0-.362-.024-.676-.096-.942.912-.073 1.8-.145 2.686-.145 1.27 0 1.415.29 1.415 1.45l-.025 7.203c0 1.136-.048 1.208-1.798 1.667v.435h6.954V39.3c-1.727-.46-1.8-.555-1.8-1.667zM93.452 37.633v-15.3h-5.156v.435c1.75.46 1.8.532 1.8 1.668v13.196c0 1.136-.05 1.21-1.8 1.668v.435h6.955V39.3c-1.726-.46-1.798-.555-1.798-1.667z"/>
    </g>
    <g fill="#005AA0">
      <path d="M14 1v11h14v28h11V1"/>
      <path d="M0 1v39h25.004V29H11V1"/>
    </g>
    <path fill="#E30613" d="M14 15h11.004v11.004H14"/>
  </g>
</svg>
